<svg id="emgXhvexHdE1" xmlns="http://www.w3.org/2000/svg" xmlns:xlink="http://www.w3.org/1999/xlink" viewBox="0 0 1920 492" shape-rendering="geometricPrecision" text-rendering="geometricPrecision" project-id="848863deb9494b868f9ba5a2395b171b" export-id="310211b9b3414dafafeb1a29893bd1b7" cached="false"><defs><linearGradient id="emgXhvexHdE3-fill" x1="0" y1="0.5" x2="1" y2="0.5" spreadMethod="pad" gradientUnits="objectBoundingBox" gradientTransform="translate(0 0)"><stop id="emgXhvexHdE3-fill-0" offset="0%" stop-color="#97da97"/><stop id="emgXhvexHdE3-fill-1" offset="100%" stop-color="#94d594"/></linearGradient><linearGradient id="emgXhvexHdE4-fill" x1="0" y1="0.5" x2="1" y2="0.5" spreadMethod="pad" gradientUnits="objectBoundingBox" gradientTransform="translate(0 0)"><stop id="emgXhvexHdE4-fill-0" offset="0%" stop-color="#97da97"/><stop id="emgXhvexHdE4-fill-1" offset="100%" stop-color="#94d594"/></linearGradient><linearGradient id="emgXhvexHdE7-fill" x1="0" y1="0.5" x2="1" y2="0.5" spreadMethod="pad" gradientUnits="objectBoundingBox" gradientTransform="translate(0 0)"><stop id="emgXhvexHdE7-fill-0" offset="0%" stop-color="#97da97"/><stop id="emgXhvexHdE7-fill-1" offset="100%" stop-color="#94d594"/></linearGradient><linearGradient id="emgXhvexHdE8-fill" x1="0" y1="0.5" x2="1" y2="0.5" spreadMethod="pad" gradientUnits="objectBoundingBox" gradientTransform="translate(0 0)"><stop id="emgXhvexHdE8-fill-0" offset="0%" stop-color="#97da97"/><stop id="emgXhvexHdE8-fill-1" offset="100%" stop-color="#94d594"/></linearGradient><linearGradient id="emgXhvexHdE10-fill" x1="0.78466" y1="0.097111" x2="0.520167" y2="0.452012" spreadMethod="pad" gradientUnits="objectBoundingBox" gradientTransform="translate(0 0)"><stop id="emgXhvexHdE10-fill-0" offset="0%" stop-color="#a3eaa3"/><stop id="emgXhvexHdE10-fill-1" offset="100%" stop-color="#97da97"/></linearGradient><linearGradient id="emgXhvexHdE12-fill" x1="0.78466" y1="0.097111" x2="0.520167" y2="0.452012" spreadMethod="pad" gradientUnits="objectBoundingBox" gradientTransform="translate(0 0)"><stop id="emgXhvexHdE12-fill-0" offset="0%" stop-color="#a3eaa3"/><stop id="emgXhvexHdE12-fill-1" offset="100%" stop-color="#97da97"/></linearGradient><linearGradient id="emgXhvexHdE15-fill" x1="0" y1="0.5" x2="1" y2="0.5" spreadMethod="pad" gradientUnits="objectBoundingBox" gradientTransform="translate(0 0)"><stop id="emgXhvexHdE15-fill-0" offset="0%" stop-color="#97da97"/><stop id="emgXhvexHdE15-fill-1" offset="100%" stop-color="#94d594"/></linearGradient><linearGradient id="emgXhvexHdE16-fill" x1="0" y1="0.5" x2="1" y2="0.5" spreadMethod="pad" gradientUnits="objectBoundingBox" gradientTransform="translate(0 0)"><stop id="emgXhvexHdE16-fill-0" offset="0%" stop-color="#97da97"/><stop id="emgXhvexHdE16-fill-1" offset="100%" stop-color="#94d594"/></linearGradient><linearGradient id="emgXhvexHdE18-fill" x1="0.83469" y1="0.773913" x2="0.398616" y2="0.976322" spreadMethod="pad" gradientUnits="objectBoundingBox" gradientTransform="translate(0 0)"><stop id="emgXhvexHdE18-fill-0" offset="0%" stop-color="#9ce49c"/><stop id="emgXhvexHdE18-fill-1" offset="100%" stop-color="#94d594"/></linearGradient><linearGradient id="emgXhvexHdE21-fill" x1="0" y1="0.5" x2="1" y2="0.5" spreadMethod="pad" gradientUnits="objectBoundingBox" gradientTransform="translate(0 0)"><stop id="emgXhvexHdE21-fill-0" offset="0%" stop-color="#97da97"/><stop id="emgXhvexHdE21-fill-1" offset="100%" stop-color="#94d594"/></linearGradient><linearGradient id="emgXhvexHdE22-fill" x1="0" y1="0.5" x2="1" y2="0.5" spreadMethod="pad" gradientUnits="objectBoundingBox" gradientTransform="translate(0 0)"><stop id="emgXhvexHdE22-fill-0" offset="0%" stop-color="#97da97"/><stop id="emgXhvexHdE22-fill-1" offset="100%" stop-color="#94d594"/></linearGradient><linearGradient id="emgXhvexHdE24-fill" x1="0.355432" y1="0.251491" x2="0.575619" y2="0.787774" spreadMethod="pad" gradientUnits="objectBoundingBox" gradientTransform="translate(0 0)"><stop id="emgXhvexHdE24-fill-0" offset="0%" stop-color="#94d394"/><stop id="emgXhvexHdE24-fill-1" offset="100%" stop-color="#97da97"/></linearGradient><linearGradient id="emgXhvexHdE27-fill" x1="0" y1="0.5" x2="1" y2="0.5" spreadMethod="pad" gradientUnits="objectBoundingBox" gradientTransform="translate(0 0)"><stop id="emgXhvexHdE27-fill-0" offset="0%" stop-color="#97da97"/><stop id="emgXhvexHdE27-fill-1" offset="100%" stop-color="#94d594"/></linearGradient><linearGradient id="emgXhvexHdE28-fill" x1="0" y1="0.5" x2="1" y2="0.5" spreadMethod="pad" gradientUnits="objectBoundingBox" gradientTransform="translate(0 0)"><stop id="emgXhvexHdE28-fill-0" offset="0%" stop-color="#97da97"/><stop id="emgXhvexHdE28-fill-1" offset="100%" stop-color="#94d594"/></linearGradient></defs><g style="mix-blend-mode:soft-light" transform="matrix(1 0 0 0.725836 0.06-292.131701)"><path d="M0,524.640138l960,66.972737l960-66.972737v555.413086L0,1079.999998v-555.35986Z" transform="translate(0-122.640169)" fill="url(#emgXhvexHdE3-fill)" stroke-width="3.84"/><path d="M1920,963.725672L0,1073.634128v-116.2743l1920,6.365844Z" transform="matrix(1 0 0 1.115839-.06-118.002862)" fill="url(#emgXhvexHdE4-fill)" stroke-width="3.84"/></g><g style="mix-blend-mode:soft-light" transform="translate(.120118-87.693442)" mask="url(#emgXhvexHdE9)"><g transform="matrix(1 0 0 0.725836-.000118-204.438266)"><path style="mix-blend-mode:soft-light" d="M0,524.640138l960,66.972737l960-66.972737v555.413086c-923.001731-.025588-1881.096179-.052201-1920-.053226v-555.35986Z" transform="translate(-.059941-122.163948)" fill="url(#emgXhvexHdE7-fill)" stroke-width="3.84"/><path d="M1920,963.725672L0,1073.634128v-116.2743l1920,6.365844Z" transform="matrix(1 0 0 1.115839-.06-117.765591)" fill="url(#emgXhvexHdE8-fill)" stroke-width="3.84"/></g><mask id="emgXhvexHdE9" mask-type="luminance" x="-150%" y="-150%" height="400%" width="400%"><path d="M300,0C300,138.071187,165.685425,250,0,250s-300-111.928813-300-250s134.314575-250,300-250s300,111.928813,300,250Z" transform="matrix(1.247458 0 0 1.247458 292.149768 532.550591)" fill="url(#emgXhvexHdE10-fill)" stroke-width="0"/></mask></g><g transform="translate(.060059-87.693435)" mask="url(#emgXhvexHdE13)"><ellipse rx="300" ry="250" transform="matrix(-1.246978 0.034597-.034597-1.246978 1342.742633 87.347784)" fill="url(#emgXhvexHdE12-fill)" stroke-width="0"/><mask id="emgXhvexHdE13" mask-type="luminance" x="-150%" y="-150%" height="400%" width="400%"><g transform="matrix(1 0 0 0.725836-.000059-204.438266)"><path d="M0,524.640138l960,66.972737l960-66.972737v555.413086L0,1079.999998v-555.35986Z" transform="translate(0-122.640169)" fill="url(#emgXhvexHdE15-fill)" stroke-width="3.84"/><path d="M1920,963.725672L0,1073.634128v-116.2743l1920,6.365844Z" transform="matrix(1 0 0 1.115839-.06-118.002862)" fill="url(#emgXhvexHdE16-fill)" stroke-width="3.84"/></g></mask></g><g transform="translate(.060059-87.693435)" mask="url(#emgXhvexHdE19)"><ellipse rx="300" ry="250" transform="matrix(-1.01578 0.028182-.028182-1.01578 1871.72798 532.550591)" fill="url(#emgXhvexHdE18-fill)" stroke-width="0"/><mask id="emgXhvexHdE19" mask-type="luminance" x="-150%" y="-150%" height="400%" width="400%"><g transform="matrix(1 0 0 0.725836-.000059-204.438266)"><path d="M0,524.640138l960,66.972737l960-66.972737v555.413086L0,1079.999998v-555.35986Z" transform="translate(0-122.640169)" fill="url(#emgXhvexHdE21-fill)" stroke-width="3.84"/><path d="M1920,963.725672L0,1073.634128v-116.2743l1920,6.365844Z" transform="matrix(1 0 0 1.115839-.06-118.002862)" fill="url(#emgXhvexHdE22-fill)" stroke-width="3.84"/></g></mask></g><g transform="translate(.060059-87.693435)" mask="url(#emgXhvexHdE25)"><ellipse rx="300" ry="250" transform="matrix(-1.04994 0.02913-.02913-1.04994 1385.922396-1.245336)" fill="url(#emgXhvexHdE24-fill)" stroke-width="0"/><mask id="emgXhvexHdE25" mask-type="luminance" x="-150%" y="-150%" height="400%" width="400%"><g transform="matrix(1 0 0 0.725836-.000059-204.438266)"><path d="M0,524.640138l960,66.972737l960-66.972737v555.413086L0,1079.999998v-555.35986Z" transform="translate(0-122.640169)" fill="url(#emgXhvexHdE27-fill)" stroke-width="3.84"/><path d="M1920,963.725672L0,1073.634128v-116.2743l1920,6.365844Z" transform="matrix(1 0 0 1.115839-.06-118.002862)" fill="url(#emgXhvexHdE28-fill)" stroke-width="3.84"/></g></mask></g></svg>
