<svg id="eq8UzcK0nPl1" xmlns="http://www.w3.org/2000/svg" xmlns:xlink="http://www.w3.org/1999/xlink" viewBox="0 0 500 250" shape-rendering="geometricPrecision" text-rendering="geometricPrecision" project-id="c2dd41569c8f401a95caa1e4d06f204c" export-id="8e0551c309ba4793b7abe4c8312f8565" cached="false"><defs><linearGradient id="eq8UzcK0nPl3-fill" x1="0" y1="0.5" x2="1" y2="0.5" spreadMethod="pad" gradientUnits="objectBoundingBox" gradientTransform="translate(0 0)"><stop id="eq8UzcK0nPl3-fill-0" offset="0%" stop-color="#223446"/><stop id="eq8UzcK0nPl3-fill-1" offset="100%" stop-color="#2d4055"/></linearGradient><linearGradient id="eq8UzcK0nPl4-fill" x1="0.490628" y1="0.153274" x2="0.927009" y2="0.700093" spreadMethod="pad" gradientUnits="objectBoundingBox" gradientTransform="translate(0 0)"><stop id="eq8UzcK0nPl4-fill-0" offset="0%" stop-color="#223446"/><stop id="eq8UzcK0nPl4-fill-1" offset="100%" stop-color="#2a3d51"/></linearGradient><linearGradient id="eq8UzcK0nPl5-fill" x1="0.944023" y1="0.286031" x2="0.636659" y2="0.124597" spreadMethod="pad" gradientUnits="objectBoundingBox" gradientTransform="translate(0 0)"><stop id="eq8UzcK0nPl5-fill-0" offset="0%" stop-color="#314255"/><stop id="eq8UzcK0nPl5-fill-1" offset="100%" stop-color="#233547"/></linearGradient><linearGradient id="eq8UzcK0nPl6-fill" x1="0" y1="0.5" x2="0.937951" y2="0.258297" spreadMethod="pad" gradientUnits="objectBoundingBox" gradientTransform="translate(0 0)"><stop id="eq8UzcK0nPl6-fill-0" offset="0%" stop-color="#223446"/><stop id="eq8UzcK0nPl6-fill-1" offset="100%" stop-color="#253849"/></linearGradient><linearGradient id="eq8UzcK0nPl7-fill" x1="0" y1="0.5" x2="1" y2="0.5" spreadMethod="pad" gradientUnits="objectBoundingBox" gradientTransform="translate(0 0)"><stop id="eq8UzcK0nPl7-fill-0" offset="0%" stop-color="#223446"/><stop id="eq8UzcK0nPl7-fill-1" offset="100%" stop-color="#27394c"/></linearGradient><linearGradient id="eq8UzcK0nPl8-fill" x1="0" y1="0.5" x2="1" y2="0.5" spreadMethod="pad" gradientUnits="objectBoundingBox" gradientTransform="translate(0 0)"><stop id="eq8UzcK0nPl8-fill-0" offset="0%" stop-color="#223446"/><stop id="eq8UzcK0nPl8-fill-1" offset="100%" stop-color="#2d3e50"/></linearGradient></defs><path d="M0,0h500v250h-500L0,0Z" fill="#223446"/><rect width="307.66501" height="127.750178" rx="0" ry="0" transform="matrix(.38879-.921327 1.167008 0.492465 94.705709 479.270861)" fill="url(#eq8UzcK0nPl3-fill)" fill-opacity="0.35" stroke-width="0"/><ellipse rx="92.219659" ry="92.219659" transform="matrix(-.241139-1.232166 1.232166-.241139 459.927254 190.043359)" fill="url(#eq8UzcK0nPl4-fill)" stroke-width="0"/><ellipse rx="92.219659" ry="92.219659" transform="matrix(-.241139-1.232166 1.232166-.241139 559.139019 250)" fill="url(#eq8UzcK0nPl5-fill)" stroke-width="0"/><ellipse rx="92.219659" ry="92.219659" transform="matrix(1.628231 0 0 1.628231 50.481215 32.590348)" fill="url(#eq8UzcK0nPl6-fill)" stroke-width="0"/><rect width="307.66501" height="127.750178" rx="0" ry="0" transform="matrix(-.173857 0.984771-1.247371-.220218 566.348089-270.389185)" fill="url(#eq8UzcK0nPl7-fill)" stroke-width="0"/><rect width="307.66501" height="127.750178" rx="0" ry="0" transform="matrix(.432466-.90165 1.142085 0.547788-139.478178 121.217456)" fill="url(#eq8UzcK0nPl8-fill)" stroke-width="0"/></svg>
